<svg width="128" height="24" viewBox="0 0 128 24" fill="none" xmlns="http://www.w3.org/2000/svg">
<path d="M10.5967 19.494C11.1017 19.494 11.5809 19.4485 12.0319 19.3469C12.4894 19.2451 12.8954 19.0855 13.2379 18.8482C13.5804 18.6209 13.8636 18.3086 14.0704 17.9107C14.2769 17.5171 14.3756 17.0063 14.3756 16.3879C14.3756 15.1775 14.0386 14.3175 13.3684 13.7956C12.6966 13.281 11.8009 13.0251 10.6992 13.0251H5.13427V19.494H10.5967ZM10.3142 9.49405C11.2207 9.49405 11.9711 9.27654 12.5661 8.83469C13.1549 8.40142 13.4409 7.68319 13.4409 6.69843C13.4409 6.15275 13.3456 5.70029 13.1549 5.34963C12.9581 4.99898 12.6966 4.72437 12.3666 4.53262C12.0391 4.33279 11.6692 4.19435 11.2392 4.12033C10.8182 4.03645 10.3759 4.00437 9.92318 4.00437H5.13427V9.49405H10.3142ZM10.9762 0.00293818C12.0876 0.00293818 13.0911 0.100201 14.0086 0.301043C14.9203 0.496328 15.6988 0.822728 16.3566 1.27064C17.0046 1.71755 17.5113 2.3125 17.874 3.0618C18.228 3.8005 18.4065 4.72462 18.4065 5.81826C18.4065 7.00109 18.1405 7.98862 17.609 8.7781C17.0741 9.56656 16.2878 10.2133 15.2373 10.7158C16.6681 11.1314 17.7273 11.8637 18.43 12.9038C19.1363 13.951 19.4815 15.2053 19.4815 16.6746C19.4815 17.8663 19.2555 18.8912 18.8053 19.7539C18.3498 20.6273 17.7303 21.3354 16.9666 21.8813C16.1966 22.4326 15.3123 22.8368 14.3219 23.1C13.3303 23.3646 12.3089 23.4974 11.2834 23.4951H0.0161133V0.00268555H10.9762V0.00293818Z" fill="#F9F9F9"/>
<path d="M32.0905 10.4785C31.5405 9.86386 30.6103 9.53115 29.4751 9.53115C28.7361 9.53115 28.1243 9.65696 27.6354 9.91287C27.1569 10.1655 26.7641 10.4803 26.4649 10.8504C26.1664 11.2268 25.9624 11.6237 25.8444 12.0484C25.7259 12.4624 25.6554 12.8378 25.6334 13.1698H33.156C33.0458 11.9779 32.6423 11.0975 32.0905 10.4785ZM26.7781 19.4151C27.4704 20.0982 28.4713 20.4426 29.7681 20.4426C30.7003 20.4426 31.5063 20.2043 32.1823 19.7289C32.8523 19.2552 33.2603 18.7477 33.4182 18.2214H37.4894C36.8352 20.2687 35.8422 21.7307 34.487 22.6104C33.149 23.4943 31.5158 23.9349 29.6136 23.9349C28.2876 23.9349 27.0944 23.7174 26.0236 23.2907C24.9527 22.8582 24.0577 22.2516 23.3047 21.4614C22.5709 20.6674 22.0017 19.7289 21.5957 18.6274C21.194 17.531 20.9907 16.3168 20.9907 15.0011C20.9907 13.7291 21.202 12.5407 21.6125 11.4428C22.0325 10.3411 22.6124 9.39018 23.3752 8.59262C24.1407 7.79077 25.0471 7.15818 26.1029 6.69612C27.1596 6.23481 28.3238 6.00391 29.6136 6.00391C31.0375 6.00391 32.2848 6.28054 33.3537 6.84517C34.4192 7.40096 35.2922 8.15456 35.9789 9.09864C36.6649 10.0412 37.1532 11.1189 37.4584 12.3268C37.7604 13.5336 37.8672 14.7942 37.7799 16.1145H25.6331C25.6331 17.4587 26.0831 18.7317 26.7781 19.4151Z" fill="#F9F9F9"/>
<path d="M44.3466 0.0024499V8.86022H44.4526C45.0395 7.8747 45.782 7.15824 46.6948 6.71411C47.6057 6.2662 48.4947 6.04489 49.3605 6.04489C50.5954 6.04489 51.6072 6.2091 52.3972 6.54712C53.1881 6.89146 53.8139 7.35731 54.2721 7.96287C54.7214 8.5659 55.0391 9.30182 55.2256 10.1689C55.4081 11.0341 55.5026 11.9888 55.5026 13.0413V23.4947H50.8567V13.8896C50.8567 12.4893 50.6404 11.4366 50.2097 10.7479C49.7782 10.0582 49.012 9.71209 47.9067 9.71209C46.6568 9.71209 45.7528 10.0948 45.193 10.8505C44.623 11.6058 44.3466 12.8495 44.3466 14.5801V23.4947H39.7024V0.00219727H44.3466" fill="#F9F9F9"/>
<path d="M67.9034 15.5926C67.6159 15.6888 67.2969 15.7702 66.9684 15.8406C66.6169 15.9067 66.2634 15.9614 65.9084 16.0049C65.5401 16.0481 65.173 16.1019 64.8077 16.1663C64.4617 16.2348 64.1157 16.3204 63.7862 16.4321C63.451 16.5427 63.157 16.6897 62.915 16.8754C62.6653 17.0634 62.4595 17.3046 62.3122 17.5818C62.1637 17.8655 62.0845 18.2338 62.0845 18.6694C62.0845 19.0849 62.1637 19.4356 62.312 19.7236C62.465 20.0091 62.6645 20.2321 62.9265 20.3971C63.1877 20.5621 63.494 20.678 63.835 20.7425C64.181 20.8119 64.5385 20.838 64.9049 20.838C65.8139 20.838 66.5149 20.6854 67.0144 20.3794C67.5114 20.0715 67.8859 19.7041 68.1196 19.2759C68.3581 18.8477 68.5021 18.416 68.5486 17.9807C68.6096 17.5426 68.6371 17.1894 68.6371 16.9244V15.177C68.4366 15.3564 68.2009 15.4945 67.9034 15.5926ZM58.8033 8.97362C59.2659 8.25663 59.8873 7.65828 60.6183 7.22591C61.3563 6.78381 62.1807 6.47231 63.1075 6.28587C64.0236 6.09648 64.9565 6.00202 65.8917 6.00393C66.7347 6.00393 67.5874 6.0628 68.4659 6.18406C69.3299 6.30457 70.1201 6.54103 70.8368 6.8932C71.5528 7.24739 72.1363 7.73193 72.5881 8.36427C73.0463 8.98069 73.2785 9.81564 73.2785 10.8504V19.7155C73.2785 20.4863 73.3243 21.2187 73.4055 21.92C73.4973 22.6273 73.7348 23.1579 73.959 23.506L69.2366 23.4944C69.0979 23.291 68.9831 22.9724 68.9291 22.695C68.8738 22.4188 68.8358 22.1394 68.8154 21.8583C68.0799 22.6273 67.2177 23.168 66.2129 23.4764C65.2222 23.7807 64.1924 23.9352 63.157 23.935C62.357 23.935 61.612 23.8324 60.9148 23.6343C60.228 23.4363 59.618 23.1296 59.0981 22.7148C58.5756 22.2918 58.1738 21.7674 57.8806 21.1323C57.5896 20.4936 57.4393 19.7334 57.4393 18.8558C57.4393 17.887 57.6116 17.0894 57.9513 16.4649C58.2823 15.8406 58.7123 15.3382 59.25 14.9663C59.7788 14.5916 60.386 14.3097 61.0738 14.126C61.7518 13.9396 62.4393 13.7904 63.1332 13.6791C63.8297 13.5713 64.5075 13.4838 65.1847 13.4159C65.8634 13.3489 66.4514 13.2537 66.9767 13.1198C67.4947 12.9894 67.9096 12.7914 68.2141 12.5408C68.5134 12.2894 68.6574 11.9236 68.6371 11.4365C68.6371 10.9333 68.5486 10.5321 68.3889 10.2322C68.2378 9.94965 68.0159 9.71215 67.7454 9.54356C67.4729 9.37758 67.1654 9.26894 66.8114 9.21084C66.431 9.15563 66.0472 9.1282 65.6629 9.12873C64.7582 9.12873 64.0422 9.3321 63.5347 9.72292C63.013 10.1251 62.713 10.787 62.6202 11.7111H57.9823C58.0493 10.6079 58.3178 9.6969 58.8033 8.97362Z" fill="#F9F9F9"/>
<path d="M80.2124 6.4893V8.86025H80.3157C80.9009 7.87473 81.6556 7.15827 82.5931 6.71414C83.5226 6.26623 84.4856 6.04492 85.4621 6.04492C86.7023 6.04492 87.72 6.20913 88.5068 6.54715C89.3072 6.89149 89.9297 7.35734 90.3807 7.9629C90.8432 8.56593 91.161 9.30185 91.3465 10.1689C91.5335 11.0341 91.6265 11.9888 91.6265 13.0413V23.4947H86.9785V13.8896C86.9785 12.4893 86.7605 11.4366 86.327 10.7479C85.8876 10.0582 85.1293 9.61612 84.0161 9.61612C82.7581 9.61612 81.8419 10.0949 81.2786 10.8505C80.7121 11.6058 80.4312 12.8496 80.4312 14.5801V23.4947H75.834V6.4893H80.2124Z" fill="#F9F9F9"/>
<path d="M101.914 9.53115C101.171 9.53115 100.557 9.69687 100.064 10.0415C99.5603 10.3812 99.1398 10.8319 98.8339 11.3597C98.5189 11.8958 98.3006 12.489 98.1656 13.1385C98.0394 13.787 97.9689 14.4294 97.9689 15.0681C97.9689 15.6853 98.0394 16.3108 98.1656 16.9494C98.3006 17.5845 98.5081 18.158 98.8014 18.6807C99.0961 19.1906 99.5044 19.624 99.9938 19.9466C100.491 20.2776 101.096 20.4426 101.813 20.4426C102.926 20.4426 103.779 20.1285 104.377 19.5068C104.972 18.8815 105.34 18.0413 105.495 16.9886H109.96C109.654 19.2446 108.785 20.968 107.356 22.1562C105.921 23.3365 104.085 23.9349 101.848 23.9349C100.584 23.9349 99.4351 23.7174 98.3759 23.2907C97.3184 22.8582 96.4204 22.2625 95.6809 21.4935C94.9409 20.7227 94.3672 19.8067 93.9469 18.7416C93.5365 17.6745 93.33 16.5033 93.33 15.2323C93.33 13.9156 93.5215 12.689 93.9019 11.5552C94.2807 10.426 94.8404 9.44727 95.5862 8.62647C96.3251 7.80037 97.2291 7.15818 98.2981 6.69612C99.3626 6.23481 100.579 6.00391 101.945 6.00391C102.944 6.00391 103.904 6.14033 104.83 6.39548C105.75 6.65595 106.577 7.05839 107.303 7.59801C108.028 8.13125 108.635 8.81299 109.083 9.59885C109.534 10.3954 109.791 11.3498 109.863 12.441H105.329C105.029 10.4997 103.89 9.53115 101.914 9.53115Z" fill="#F9F9F9"/>
<path d="M24.6879 1.57837H34.1112V3.89702H24.6879V1.57837Z" fill="#F9F9F9"/>
<path d="M122.281 10.4785C121.724 9.86386 120.787 9.53115 119.666 9.53115C118.928 9.53115 118.314 9.65696 117.816 9.91287C117.337 10.1655 116.899 10.4803 116.605 10.8504C116.311 11.2268 116.1 11.6237 115.978 12.0484C115.868 12.4624 115.791 12.8378 115.771 13.1698H123.35C123.227 11.9779 122.833 11.0975 122.281 10.4785H122.281ZM116.911 19.4151C117.606 20.0982 118.655 20.4426 119.961 20.4426C120.892 20.4426 121.696 20.2043 122.368 19.7289C123.04 19.2552 123.456 18.7477 123.605 18.2214H127.676C127.025 20.2687 126.026 21.7307 124.68 22.6104C123.336 23.4943 121.71 23.9349 119.801 23.9349C118.471 23.9349 117.273 23.7174 116.211 23.2907C115.141 22.8582 114.246 22.2516 113.496 21.4614C112.755 20.6674 112.186 19.7289 111.782 18.6274C111.38 17.531 111.181 16.3168 111.181 15.0011C111.181 13.7291 111.387 12.5407 111.799 11.4428C112.215 10.3411 112.808 9.39018 113.566 8.59262C114.335 7.79077 115.233 7.15818 116.286 6.69612C117.344 6.23481 118.518 6.00391 119.801 6.00391C121.223 6.00391 122.476 6.28054 123.534 6.84517C124.602 7.40096 125.479 8.15456 126.161 9.09864C126.847 10.0412 127.34 11.1189 127.643 12.3268C127.941 13.5336 128.056 14.7942 127.97 16.1145H115.771C115.771 17.4587 116.215 18.7317 116.911 19.4151Z" fill="#F9F9F9"/>
</svg>
