<svg width="50" height="50" viewBox="0 0 50 50" fill="none" xmlns="http://www.w3.org/2000/svg">
<g clip-path="url(#clip0)">
<path fill-rule="evenodd" clip-rule="evenodd" d="M9.6875 35C9.83304 34.8059 10.0218 34.6484 10.2387 34.54C10.4557 34.4315 10.6949 34.375 10.9375 34.375H18.75C19.1644 34.375 19.5618 34.5396 19.8549 34.8326C20.1479 35.1257 20.3125 35.5231 20.3125 35.9375C20.3125 36.3519 20.1479 36.7493 19.8549 37.0424C19.5618 37.3354 19.1644 37.5 18.75 37.5H11.7188L4.6875 46.875H45.3125L38.2812 37.5H31.25C30.8356 37.5 30.4382 37.3354 30.1451 37.0424C29.8521 36.7493 29.6875 36.3519 29.6875 35.9375C29.6875 35.5231 29.8521 35.1257 30.1451 34.8326C30.4382 34.5396 30.8356 34.375 31.25 34.375H39.0625C39.3051 34.375 39.5443 34.4315 39.7613 34.54C39.9782 34.6484 40.167 34.8059 40.3125 35L49.6875 47.5C49.8616 47.7321 49.9676 48.0082 49.9937 48.2972C50.0197 48.5862 49.9648 48.8767 49.835 49.1363C49.7053 49.3958 49.5058 49.6141 49.259 49.7666C49.0121 49.9192 48.7277 50 48.4375 50H1.5625C1.27233 50 0.987883 49.9192 0.741046 49.7666C0.494208 49.6141 0.294728 49.3958 0.164958 49.1363C0.0351881 48.8767 -0.019745 48.5862 0.00631431 48.2972C0.0323736 48.0082 0.138396 47.7321 0.312501 47.5L9.6875 35Z" fill="#F95D82"/>
<path fill-rule="evenodd" clip-rule="evenodd" d="M25 3.12546C23.7689 3.12546 22.5498 3.36795 21.4123 3.83909C20.2749 4.31023 19.2414 5.00079 18.3709 5.87134C17.5003 6.74189 16.8098 7.77538 16.3386 8.91281C15.8675 10.0502 15.625 11.2693 15.625 12.5005C15.625 13.7316 15.8675 14.9507 16.3386 16.0881C16.8098 17.2255 17.5003 18.259 18.3709 19.1296C19.2414 20.0001 20.2749 20.6907 21.4123 21.1618C22.5498 21.633 23.7689 21.8755 25 21.8755C27.4864 21.8755 29.871 20.8877 31.6291 19.1296C33.3873 17.3714 34.375 14.9869 34.375 12.5005C34.375 10.0141 33.3873 7.62949 31.6291 5.87134C29.871 4.11318 27.4864 3.12546 25 3.12546ZM12.5 12.5005C12.5002 10.0949 13.1946 7.74053 14.4997 5.71981C15.8048 3.69909 17.6653 2.09787 19.8578 1.1083C22.0504 0.118718 24.4819 -0.217186 26.8607 0.14089C29.2394 0.498966 31.4643 1.53581 33.2684 3.12701C35.0725 4.71822 36.3791 6.79618 37.0315 9.11157C37.6839 11.427 37.6544 13.8814 36.9464 16.1804C36.2384 18.4794 34.8822 20.5253 33.0403 22.0726C31.1984 23.6199 28.9492 24.6029 26.5625 24.9036V42.188C26.5625 42.6024 26.3979 42.9998 26.1049 43.2928C25.8118 43.5858 25.4144 43.7505 25 43.7505C24.5856 43.7505 24.1882 43.5858 23.8951 43.2928C23.6021 42.9998 23.4375 42.6024 23.4375 42.188V24.9067C20.4155 24.526 17.6365 23.0549 15.6225 20.7699C13.6086 18.4849 12.4982 15.5432 12.5 12.4973V12.5005Z" fill="#F95D82"/>
</g>
<defs>
<clipPath id="clip0">
<rect width="50" height="50" fill="white"/>
</clipPath>
</defs>
</svg>
