<svg width="50" height="50" viewBox="0 0 50 50" fill="none" xmlns="http://www.w3.org/2000/svg">
<path d="M40.625 3.125H46.875V9.375H40.625V3.125Z" fill="#F95D82"/>
<path d="M40.625 12.5H46.875V18.75H40.625V12.5Z" fill="#F95D82"/>
<path d="M31.25 3.125H37.5V9.375H31.25V3.125Z" fill="#F95D82"/>
<path d="M31.25 12.5H37.5V18.75H31.25V12.5Z" fill="#F95D82"/>
<path d="M39.0626 46.875H38.797C8.09387 45.1094 3.73449 19.2031 3.12512 11.2969C3.02988 10.0574 3.43087 8.83089 4.2399 7.88707C5.04893 6.94325 6.19973 6.35944 7.43918 6.26406C7.56314 6.25469 7.68762 6.25 7.81262 6.25H16.047C16.6729 6.2494 17.2845 6.43673 17.8027 6.78775C18.3208 7.13877 18.7217 7.6373 18.9532 8.21875L21.3282 14.0625C21.5569 14.6305 21.6137 15.2532 21.4914 15.8533C21.3692 16.4533 21.0734 17.0042 20.6407 17.4375L17.3126 20.7969C17.8304 23.7521 19.2445 26.4765 21.3631 28.6008C23.4818 30.7251 26.2025 32.1463 29.1564 32.6719L32.547 29.3125C32.9868 28.8846 33.5429 28.5957 34.1459 28.4818C34.7488 28.3679 35.372 28.434 35.9376 28.6719L41.8282 31.0313C42.4009 31.2701 42.8895 31.6741 43.2318 32.1917C43.5741 32.7092 43.7545 33.317 43.7501 33.9375V42.1875C43.7501 43.4307 43.2563 44.623 42.3772 45.5021C41.4981 46.3811 40.3058 46.875 39.0626 46.875ZM7.81262 9.375C7.60743 9.37438 7.40412 9.41419 7.21432 9.49214C7.02451 9.5701 6.85191 9.68467 6.70639 9.82933C6.56086 9.97399 6.44525 10.1459 6.36616 10.3352C6.28707 10.5246 6.24604 10.7276 6.24543 10.9328C6.24543 10.9766 6.24543 11.0188 6.25012 11.0625C6.96887 20.3125 11.5782 42.1875 38.9689 43.75C39.3824 43.7748 39.7889 43.6343 40.0989 43.3595C40.4089 43.0846 40.597 42.6979 40.622 42.2844L40.6251 42.1875V33.9375L34.7345 31.5781L30.2501 36.0312L29.5001 35.9375C15.9064 34.2344 14.0626 20.6406 14.0626 20.5L13.9689 19.75L18.4064 15.2656L16.0626 9.375H7.81262Z" fill="#F95D82"/>
</svg>
