<svg width="50" height="50" viewBox="0 0 50 50" fill="none" xmlns="http://www.w3.org/2000/svg">
<g clip-path="url(#clip0)">
<path d="M47.2404 50.0002C48.7643 50.0002 50 48.7646 50 47.2406V2.75957C50 1.23535 48.7643 0 47.2404 0H2.75957C1.23516 0 0 1.23535 0 2.75957V47.2406C0 48.7646 1.23516 50.0002 2.75957 50.0002H47.2404Z" fill="#F9F9F9"/>
<path d="M34.4991 50.0002V30.6375H40.9985L41.9715 23.0916H34.4991V18.2736C34.4991 16.0889 35.1059 14.6 38.2389 14.6L42.2348 14.5982V7.84922C41.5434 7.75723 39.1715 7.55176 36.4122 7.55176C30.6508 7.55176 26.7067 11.0684 26.7067 17.5266V23.0916H20.1907V30.6375H26.7067V50.0002H34.4991Z" fill="#4D4D4D"/>
</g>
<defs>
<clipPath id="clip0">
<rect width="50" height="50" fill="white"/>
</clipPath>
</defs>
</svg>
