<svg width="1792" height="580" viewBox="0 0 1792 580" fill="none" xmlns="http://www.w3.org/2000/svg">
<path d="M70.8 153.6C56 142 48.8 127.6 48.4 110.8C47.6 89.2 59.6 70.8 84.4 55.6C106.4 42.4 128.8 36 152 36C190.4 36 225.6 43.2 257.2 57.6C244.8 60.8 231.6 64.8 216.8 69.6C155.6 89.2 107.2 117.2 70.8 153.6ZM360.8 166.4C362 163.6 362.4 160 362.4 156C362.4 144.4 356.8 130.8 346 116C336 102.8 324.8 91.6 312 82.4C306 78 300.4 74.4 294.4 70.8C317.2 67.2 336.8 65.2 354 65.2C394 65.2 414 76 414 97.6C414 107.6 407.6 120.4 394.4 136C382.8 150 371.6 160.4 360.8 166.4ZM431.2 110C431.2 96.4 426 82.8 415.6 69.6C402.4 52.4 379.2 44 345.6 44C322.8 44 296 47.6 266 55.2C223.6 34.8 182.8 25.6 144 27.6C118.8 28.8 95.6 36.4 74 50.8C50.4 67.2 38.4 87.2 38.4 110C38.4 131.2 46.8 148.4 63.6 161.2C30.8 196.4 14.4 234.8 14.4 276.4C14.4 313.6 27.6 342 53.6 360.8C76.4 377.6 107.2 386 146 386C197.6 386 246.8 373.6 292.8 348.4C340.8 322.4 364.8 294 364.8 262.4C364.8 250 361.2 240.4 353.6 233.6C377.2 235.2 400.4 239.6 422.8 246.4C423.2 240.4 423.6 236.4 423.2 235.2C422.4 232.4 420 230 415.6 228C398.8 221.2 371.6 217.6 333.6 217.6C312.4 217.6 289.6 218.4 264 220.4C202 225.6 162 232 144.8 238.8C142 240 138.8 244 136 250C133.2 256 132.4 261.2 133.6 265.6C150.8 262.4 174 257.6 204 250.8C231.2 244.8 251.2 240.4 266.8 238.4C289.6 234.8 314.4 233.2 340.4 233.2C345.6 276 329.2 310.4 290.4 336.4C255.6 359.6 213.6 371.2 165.2 371.2C128.4 371.2 98 364 73.6 350C46.8 334 33.6 312 33.6 284.4C33.6 245.2 50 208 82.4 172.4C99.2 180 118.8 183.6 141.6 183.6C168.8 183.6 192.4 176.8 197.2 167.2C198 166 197.6 164.8 196.4 164C195.2 162.8 194 162.8 193.2 164.8C188.8 173.2 174 177.6 149.6 177.6C127.2 177.6 107.2 173.6 89.6 165.2C124.4 130.4 168 104.8 220.4 88C238.4 82.4 260 77.2 285.2 72.4C291.2 76 296.8 80 302.8 84.4C314.4 92.8 325.6 103.6 336.4 116.8C349.2 133.2 355.6 147.6 355.6 159.2C355.6 164.4 354.4 168.4 352 172C349.6 174 348.4 175.6 348.8 176.8C349.2 178.8 352.4 178.4 357.6 175.6C375.6 169.6 391.6 161.2 405.2 150.8C422.4 137.6 431.2 124 431.2 110ZM558.909 314C560.109 312 560.909 310 560.909 308.4C560.909 303.6 558.509 304 553.309 309.2C544.109 319.2 530.909 329.2 512.909 339.2C493.309 350 476.509 355.6 463.309 355.6C446.509 355.6 438.109 346.4 438.109 328.4C438.109 323.2 438.509 318.4 439.709 314C463.309 308 480.909 297.6 493.309 282.4C500.109 273.2 503.709 264.8 503.709 256.8C503.709 243.6 496.909 237.2 483.709 237.2C473.709 237.2 462.909 242.8 451.309 253.6C441.309 263.2 432.909 275.2 426.109 289.6C419.309 303.2 416.109 314.8 416.109 324.8C416.109 352 428.509 365.6 453.309 365.6C470.509 365.6 490.509 359.6 513.309 347.6C534.109 336.8 549.309 325.6 558.909 314ZM485.309 276.4C477.709 290 463.309 300 442.109 306.8C447.709 293.6 455.309 280 464.909 266.8C474.909 253.6 482.509 247.2 488.109 247.2C491.309 247.2 492.909 249.6 492.909 254.4C492.909 260.4 490.509 268 485.309 276.4Z" fill="#E8A200"/>
<path d="M1254.2 84.8C1233.4 85.6 1208.6 112.8 1179.4 166.8C1156.6 208.4 1141.4 244 1133 273.2C1127 295.6 1123.8 312.4 1123.8 324C1123.8 347.6 1133.8 359.6 1153.8 360C1175.4 360.8 1201.4 345.2 1231.4 313.2C1233 311.6 1233.8 310 1233.8 308C1233.8 306.8 1233 305.6 1231.4 305.2C1229.8 305.2 1227.8 306.4 1225 309.2C1211 324 1198.6 334.4 1187 341.2C1157.8 358 1143 352.8 1143 325.6C1143 303.6 1149.4 281.2 1161.8 258.4C1220.6 208 1256.2 163.6 1268.6 125.2C1271.4 118 1272.6 111.2 1272.6 105.2C1272.6 91.2 1266.6 84.4 1254.2 84.8ZM1255.8 123.6C1249 141.6 1235.8 163.2 1216.6 188.4C1200.6 209.6 1183.8 228.4 1166.6 245.6C1184.6 201.6 1205.4 159.2 1229 118C1237.8 102.4 1245.8 94.4 1253.4 94.4C1257.8 94.4 1260.2 97.6 1260.2 104.4C1260.2 109.2 1258.6 115.6 1255.8 123.6ZM1366.53 314C1367.73 312 1368.53 310 1368.53 308.4C1368.53 303.6 1366.13 304 1360.93 309.2C1351.73 319.2 1338.53 329.2 1320.53 339.2C1300.93 350 1284.13 355.6 1270.93 355.6C1254.13 355.6 1245.73 346.4 1245.73 328.4C1245.73 323.2 1246.13 318.4 1247.33 314C1270.93 308 1288.53 297.6 1300.93 282.4C1307.73 273.2 1311.33 264.8 1311.33 256.8C1311.33 243.6 1304.53 237.2 1291.33 237.2C1281.33 237.2 1270.53 242.8 1258.93 253.6C1248.93 263.2 1240.53 275.2 1233.73 289.6C1226.93 303.2 1223.73 314.8 1223.73 324.8C1223.73 352 1236.13 365.6 1260.93 365.6C1278.13 365.6 1298.13 359.6 1320.93 347.6C1341.73 336.8 1356.93 325.6 1366.53 314ZM1292.93 276.4C1285.33 290 1270.93 300 1249.73 306.8C1255.33 293.6 1262.93 280 1272.53 266.8C1282.53 253.6 1290.13 247.2 1295.73 247.2C1298.93 247.2 1300.53 249.6 1300.53 254.4C1300.53 260.4 1298.13 268 1292.93 276.4ZM1458.89 180C1458.89 171.6 1454.09 167.2 1444.49 167.2C1440.89 167.2 1437.29 168.8 1432.89 171.6C1428.49 175.2 1426.09 179.6 1426.09 184.8C1426.09 192.4 1433.29 200 1441.29 200C1452.89 200 1458.89 193.2 1458.89 180ZM1475.69 313.2C1476.89 311.2 1477.69 309.6 1477.69 308C1477.69 306.8 1476.89 305.6 1475.69 305.2C1474.09 305.2 1472.09 306.4 1469.29 309.2C1444.09 336.4 1422.89 350 1405.69 350C1393.29 350 1386.89 341.2 1386.89 323.6C1386.89 319.2 1387.29 314.8 1388.09 310C1389.29 302.4 1392.49 293.6 1398.49 282.4C1399.69 280.4 1405.29 271.2 1414.49 254.8C1414.89 253.2 1415.29 252 1415.29 251.6C1415.29 248 1412.09 246.4 1405.69 246.4C1397.29 246.4 1391.29 248.8 1388.49 253.2C1374.09 274.4 1366.09 292.8 1364.89 308.8C1362.49 342.4 1373.69 359.6 1398.09 360C1419.69 360.8 1445.69 345.2 1475.69 313.2ZM1643.87 314C1645.47 312.4 1646.27 310.4 1646.27 308.4C1646.27 306.4 1645.47 305.6 1644.27 305.6C1642.27 305.6 1640.67 306.8 1638.67 309.2C1613.87 335.6 1593.07 348.8 1576.67 348.8C1561.07 348.8 1553.07 338.8 1553.07 318.4C1553.07 302 1557.87 285.2 1567.87 267.2C1567.87 265.6 1577.47 264 1577.47 260.8C1577.47 252.8 1563.87 247.2 1555.47 247.2C1547.47 247.2 1538.67 249.2 1529.47 253.6C1507.87 263.6 1488.27 282 1471.07 308.4C1463.47 320 1459.87 330.8 1459.87 341.6C1459.87 354 1464.67 360.4 1474.67 360.4C1481.47 360.4 1490.27 356 1501.07 347.6C1512.67 338 1523.07 326.8 1533.07 312.8C1534.27 326.4 1538.27 337.6 1544.27 346.8C1550.27 354.8 1557.07 359.2 1564.27 360C1586.27 362.4 1612.67 347.2 1643.87 314ZM1544.27 261.2C1539.07 271.2 1535.87 283.2 1533.87 296.4C1529.47 308 1520.67 320 1506.67 331.6C1499.07 338 1492.67 341.2 1487.87 341.2C1482.67 341.2 1480.27 337.6 1480.27 330.4C1480.27 323.6 1482.67 316 1487.07 307.6C1503.07 276 1522.27 260.8 1544.27 261.2ZM1672.22 350C1670.22 352 1667.42 352.8 1663.82 352.8C1654.62 352.8 1645.42 344.8 1645.42 333.6C1653.02 341.2 1661.82 346.4 1672.22 350ZM1725.82 344C1713.02 347.2 1700.62 347.6 1688.62 345.2C1689.02 343.2 1689.02 341.2 1689.02 338.4C1688.62 332 1685.42 323.2 1678.62 312.4C1672.22 301.6 1669.02 292.8 1669.02 285.2C1669.02 281.6 1669.82 277.6 1671.02 272.8C1681.02 244.4 1700.22 227.6 1729.42 222.4C1732.22 222 1734.62 221.6 1736.62 221.6C1745.42 221.6 1749.82 224.8 1749.82 231.6C1749.82 235.2 1748.22 240 1745.42 245.2C1744.22 248 1743.42 249.6 1743.42 250.8C1743.42 252.8 1744.22 253.6 1746.22 253.2C1748.22 252.4 1750.22 250.4 1752.62 247.2C1758.22 239.2 1761.02 230.8 1761.02 222.4C1761.02 210.8 1755.02 204.4 1743.02 202.8C1732.22 201.6 1721.02 202.8 1709.42 207.2C1673.82 220.4 1655.02 240.8 1652.62 269.2C1651.42 283.2 1655.82 297.2 1665.82 311.2C1669.42 316.4 1672.62 322.4 1674.62 329.2C1675.82 334.4 1676.62 338.4 1676.22 341.6C1664.22 336.8 1654.22 329.6 1646.62 320.4C1646.22 320 1645.42 319.6 1644.62 319.6C1641.82 319.6 1640.22 321.2 1639.82 324.8C1637.82 326.8 1638.22 333.2 1641.02 344C1643.82 355.2 1655.02 364 1667.42 364C1675.82 364 1681.82 360.4 1685.82 353.2C1697.82 355.2 1710.62 354.8 1724.62 352.4C1744.62 348.8 1765.82 336.4 1788.22 314.8C1790.22 312.8 1791.02 310.8 1791.02 308.8C1791.02 306.8 1790.22 305.6 1788.62 305.6C1786.62 305.6 1785.42 306.4 1784.22 308C1767.82 326.4 1748.62 338.4 1725.82 344Z" fill="#E8A200"/>
</svg>
