<svg width="50" height="50" viewBox="0 0 50 50" fill="none" xmlns="http://www.w3.org/2000/svg">
<path d="M25 4.50469C31.6752 4.50469 32.4658 4.53008 35.102 4.6502C37.5395 4.76152 38.8633 5.16875 39.7443 5.51113C40.9111 5.96465 41.7439 6.50645 42.6187 7.38125C43.4937 8.25605 44.0354 9.08887 44.4889 10.2557C44.8312 11.1367 45.2385 12.4605 45.3498 14.8979C45.4699 17.5342 45.4953 18.3248 45.4953 25C45.4953 31.6754 45.4699 32.466 45.3498 35.1021C45.2385 37.5396 44.8312 38.8633 44.4889 39.7443C44.0354 40.9111 43.4936 41.7441 42.6187 42.6189C41.7439 43.4938 40.9111 44.0355 39.7443 44.4889C38.8633 44.8312 37.5395 45.2387 35.102 45.3498C32.4662 45.4701 31.6756 45.4955 25 45.4955C18.3242 45.4955 17.5336 45.4701 14.8979 45.3498C12.4604 45.2385 11.1367 44.8312 10.2557 44.4889C9.08887 44.0355 8.25586 43.4938 7.38105 42.6189C6.50625 41.7439 5.96445 40.9111 5.51113 39.7443C5.16875 38.8635 4.76133 37.5396 4.6502 35.1021C4.52988 32.466 4.50449 31.6754 4.50449 25C4.50449 18.3248 4.52988 17.5342 4.6502 14.898C4.76152 12.4605 5.16875 11.1367 5.51113 10.2557C5.96445 9.08887 6.50625 8.25605 7.38105 7.38125C8.25605 6.50625 9.08887 5.96465 10.2557 5.51113C11.1365 5.16875 12.4604 4.76152 14.8979 4.6502C17.534 4.53008 18.3246 4.50469 25 4.50469ZM25 0C18.2104 0 17.359 0.0287109 14.6926 0.150391C12.0314 0.271875 10.2141 0.694531 8.62402 1.3125C6.97988 1.95137 5.58574 2.80625 4.1959 4.19609C2.80605 5.58594 1.95137 6.98008 1.3125 8.62402C0.694336 10.2143 0.271875 12.0316 0.150391 14.6926C0.0287109 17.359 0 18.2104 0 25C0 31.7896 0.0287109 32.641 0.150391 35.3074C0.271875 37.9686 0.694336 39.7859 1.3125 41.376C1.95117 43.0199 2.80605 44.4143 4.1959 45.8041C5.58574 47.1939 6.97988 48.0486 8.62402 48.6875C10.2143 49.3057 12.0314 49.7281 14.6924 49.8496C17.359 49.9713 18.2104 50 25 50C31.7896 50 32.641 49.9713 35.3074 49.8496C37.9684 49.7281 39.7857 49.3057 41.3758 48.6875C43.0199 48.0488 44.4141 47.1939 45.8039 45.8041C47.1938 44.4143 48.0486 43.0201 48.6875 41.376C49.3055 39.7857 49.7281 37.9686 49.8496 35.3076C49.9713 32.641 50 31.7896 50 25C50 18.2104 49.9713 17.359 49.8496 14.6926C49.7281 12.0316 49.3055 10.2143 48.6875 8.62422C48.0486 6.98008 47.1938 5.58594 45.8039 4.19609C44.4141 2.80625 43.0199 1.95117 41.376 1.3125C39.7857 0.694531 37.9684 0.271875 35.3074 0.150391C32.641 0.0287109 31.7896 0 25 0ZM25 12.1621C17.9098 12.1621 12.1621 17.9102 12.1621 25C12.1621 32.0902 17.9098 37.8379 25 37.8379C32.09 37.8379 37.8379 32.0902 37.8379 25C37.8379 17.91 32.09 12.1621 25 12.1621ZM25 33.3334C20.3977 33.3334 16.6666 29.6023 16.6666 25C16.6666 20.3977 20.3977 16.6666 25 16.6666C29.6023 16.6666 33.3334 20.3977 33.3334 25C33.3334 29.6023 29.6023 33.3334 25 33.3334ZM41.3449 11.6549C41.3449 13.3119 40.002 14.6549 38.3449 14.6549C36.6881 14.6549 35.3449 13.3119 35.3449 11.6549C35.3449 9.99805 36.6881 8.65488 38.3449 8.65488C40.002 8.65488 41.3449 9.99805 41.3449 11.6549Z" fill="#F9F9F9"/>
</svg>
