<svg width="50" height="50" viewBox="0 0 50 50" fill="none" xmlns="http://www.w3.org/2000/svg">
<g clip-path="url(#clip0)">
<path d="M42.6014 42.6023H35.193V31.0002C35.193 28.2336 35.1436 24.672 31.3398 24.672C27.4813 24.672 26.8908 27.6865 26.8908 30.7988V42.6015H19.4826V18.7429H26.5945V22.0035H26.6941C27.4059 20.7865 28.4344 19.7853 29.6701 19.1066C30.9058 18.4279 32.3025 18.0971 33.7113 18.1494C41.2201 18.1494 42.6045 23.0884 42.6045 29.5138L42.6014 42.6023ZM11.1232 15.4818C8.74883 15.4822 6.82363 13.5576 6.82324 11.1832C6.82285 8.80877 8.74727 6.88357 11.1217 6.88318C13.4961 6.88259 15.4213 8.8072 15.4217 11.1816C15.4219 12.3219 14.9691 13.4155 14.163 14.2219C13.3569 15.0284 12.2635 15.4816 11.1232 15.4818ZM14.8275 42.6025H7.41133V18.7429H14.8273V42.6023L14.8275 42.6025ZM46.2947 0.00290662H3.68867C1.675 -0.0197496 0.0236328 1.59334 -0.000976562 3.60701V46.3908C0.0228516 48.4054 1.67402 50.0201 3.68848 49.999H46.2947C48.3135 50.024 49.9711 48.4093 49.999 46.3908V3.60369C49.9703 1.58611 48.3125 -0.0267809 46.2947 -0.000413693" fill="#F9F9F9"/>
</g>
<defs>
<clipPath id="clip0">
<rect width="50" height="50" fill="white"/>
</clipPath>
</defs>
</svg>
